<svg width="12" height="12" viewBox="0 0 12 12" fill="none" xmlns="http://www.w3.org/2000/svg">
<path d="M11.8289 9.44292C10.8542 9.13591 10.2148 8.44606 9.90334 7.50017C9.84722 7.32967 9.65803 7.33157 9.66519 7.3339C9.55612 7.3339 9.45967 7.40122 9.42708 7.50002C9.12496 8.41603 8.49272 9.11952 7.50147 9.442C7.27728 9.51493 7.27706 9.81744 7.50151 9.89044C8.48679 10.2108 9.12284 10.9092 9.42738 11.8333C9.48372 12.0042 9.67269 12.0017 9.66593 11.9995C9.77519 11.9994 9.87164 11.9317 9.90393 11.8326C10.2778 10.6843 11.0306 10.2926 11.0879 10.2387C11.6982 9.84148 12.0003 9.95441 11.9999 9.66756C11.9997 9.56548 11.9309 9.47503 11.8289 9.44292Z" fill="url(#paint0_linear_2674_19311)"/>
<path d="M7.7069 3.61641C6.03599 3.0901 4.93976 1.9075 4.40586 0.285974C4.30967 -0.00630649 3.98533 -0.00304346 3.99761 0.000944658C3.81063 0.000944658 3.64528 0.116358 3.58942 0.285732C3.0715 1.85602 1.98767 3.062 0.288381 3.61484C-0.0959467 3.73986 -0.0963284 4.25844 0.288444 4.38358C1.97749 4.93279 3.06787 6.13007 3.58993 7.71426C3.68651 8.00721 4.01046 8.00297 3.99888 7.99917C4.18618 7.99887 4.35153 7.88285 4.40688 7.71299C5.04772 5.74449 6.33825 5.07292 6.4366 4.98053C7.48277 4.29965 8.0007 4.49325 8 4.00151C7.99968 3.82651 7.8816 3.67146 7.7069 3.61641Z" fill="url(#paint1_linear_2674_19311)"/>
<defs>
<linearGradient id="paint0_linear_2674_19311" x1="8.95212" y1="7.77757" x2="10.2177" y2="12.329" gradientUnits="userSpaceOnUse">
<stop stop-color="#FFD907"/>
<stop offset="1" stop-color="#FFAE00"/>
</linearGradient>
<linearGradient id="paint1_linear_2674_19311" x1="2.7752" y1="0.761531" x2="4.94469" y2="8.56399" gradientUnits="userSpaceOnUse">
<stop stop-color="#FFD907"/>
<stop offset="1" stop-color="#FFAE00"/>
</linearGradient>
</defs>
</svg>
