<svg width="16" height="16" viewBox="0 0 16 16" fill="none" xmlns="http://www.w3.org/2000/svg">
<path fill-rule="evenodd" clip-rule="evenodd" d="M5.16406 2.86699C5.16406 2.48039 5.47746 2.16699 5.86406 2.16699H13.4641C13.8507 2.16699 14.1641 2.48039 14.1641 2.86699V13.1337C14.1641 13.5203 13.8507 13.8337 13.4641 13.8337H5.86406C5.47746 13.8337 5.16406 13.5203 5.16406 13.1337V2.86699ZM6.16406 3.16699V12.8337H13.1641V3.16699H6.16406Z" fill="#666"/>
<path fill-rule="evenodd" clip-rule="evenodd" d="M1.83203 7.53366C1.83203 7.14706 2.14543 6.83366 2.53203 6.83366H3.9987C4.27484 6.83366 4.4987 7.05752 4.4987 7.33366C4.4987 7.6098 4.27484 7.83366 3.9987 7.83366H2.83203V12.8337H3.9987C4.27484 12.8337 4.4987 13.0575 4.4987 13.3337C4.4987 13.6098 4.27484 13.8337 3.9987 13.8337H2.53203C2.14543 13.8337 1.83203 13.5203 1.83203 13.1337V7.53366Z" fill="#666"/>
<path fill-rule="evenodd" clip-rule="evenodd" d="M8.84985 5.33366H7.51651V4.33366H8.84985V5.33366Z" fill="#666"/>
<path fill-rule="evenodd" clip-rule="evenodd" d="M8.84985 7.66699H7.51651V6.66699H8.84985V7.66699Z" fill="#666"/>
<path fill-rule="evenodd" clip-rule="evenodd" d="M11.8298 5.33366H10.4964V4.33366H11.8298V5.33366Z" fill="#666"/>
<path fill-rule="evenodd" clip-rule="evenodd" d="M11.8298 7.66895H10.4964V6.66895H11.8298V7.66895Z" fill="#666"/>
<path fill-rule="evenodd" clip-rule="evenodd" d="M7.5 9.79473C7.5 9.40813 7.8134 9.09473 8.2 9.09473H11.1333C11.5199 9.09473 11.8333 9.40813 11.8333 9.79473V13.0614C11.8333 13.448 11.5199 13.7614 11.1333 13.7614H8.2C7.8134 13.7614 7.5 13.448 7.5 13.0614V9.79473ZM8.5 10.0947V12.7614H10.8333V10.0947H8.5Z" fill="#666"/>
</svg>
