<svg width="12" height="12" viewBox="0 0 12 12" fill="none" xmlns="http://www.w3.org/2000/svg">
<path d="M5.78246 1.89074C5.80088 1.8527 5.82965 1.82062 5.86547 1.79817C5.90128 1.77572 5.94269 1.76382 5.98496 1.76382C6.02723 1.76382 6.06864 1.77572 6.10446 1.79817C6.14027 1.82062 6.16904 1.8527 6.18746 1.89074L7.42571 4.36574C7.44243 4.39761 7.46655 4.425 7.49604 4.44562C7.52553 4.46624 7.55954 4.47948 7.59521 4.48424L10.3597 4.88249C10.4021 4.88798 10.442 4.9054 10.4748 4.93274C10.5076 4.96007 10.532 4.99618 10.5451 5.03684C10.5581 5.07751 10.5593 5.12105 10.5485 5.16238C10.5378 5.20371 10.5155 5.24112 10.4842 5.27024L8.48846 7.18649C8.46159 7.21217 8.4415 7.2441 8.42998 7.27944C8.41847 7.31477 8.41588 7.35241 8.42246 7.38899L8.89421 10.0995C8.90213 10.1413 8.89805 10.1844 8.88245 10.224C8.86685 10.2635 8.84037 10.2978 8.80608 10.3229C8.77178 10.348 8.73107 10.3629 8.68866 10.3659C8.64626 10.3688 8.60389 10.3596 8.56646 10.3395L6.08921 9.05924C6.05704 9.04242 6.02127 9.03363 5.98496 9.03363C5.94865 9.03363 5.91288 9.04242 5.88071 9.05924L3.40571 10.344C3.36828 10.3641 3.32591 10.3733 3.28351 10.3704C3.2411 10.3674 3.20039 10.3525 3.16609 10.3274C3.1318 10.3023 3.10532 10.268 3.08972 10.2285C3.07412 10.1889 3.07004 10.1458 3.07796 10.104L3.54521 7.39199C3.55179 7.35541 3.5492 7.31777 3.53769 7.28244C3.52617 7.2471 3.50608 7.21517 3.47921 7.18949L1.48421 5.27324C1.45296 5.24412 1.43065 5.20671 1.41987 5.16538C1.4091 5.12405 1.41031 5.08051 1.42337 5.03984C1.43643 4.99918 1.46079 4.96307 1.49361 4.93573C1.52643 4.9084 1.56635 4.89098 1.60871 4.88549L4.37021 4.48424C4.40645 4.47913 4.4409 4.46526 4.47057 4.44383C4.50024 4.42239 4.52423 4.39404 4.54046 4.36124L5.78246 1.89074Z" fill="#FFA333"/>
<path fill-rule="evenodd" clip-rule="evenodd" d="M5.37749 1.68824C5.4341 1.57554 5.52093 1.4808 5.62827 1.41459C5.73561 1.34838 5.85925 1.31332 5.98537 1.31332C6.11149 1.31332 6.23512 1.34838 6.34246 1.41459C6.44981 1.4808 6.53663 1.57554 6.59324 1.68824L7.77899 4.05599L10.4265 4.43774C10.5525 4.45588 10.671 4.50905 10.7683 4.59118C10.8656 4.67332 10.9379 4.78113 10.977 4.90234C11.0161 5.02355 11.0204 5.15329 10.9893 5.27681C10.9583 5.40032 10.8932 5.51264 10.8015 5.60099L8.89274 7.43399L9.34274 10.0252C9.36435 10.1501 9.35067 10.2784 9.30325 10.3959C9.25583 10.5134 9.17656 10.6153 9.07435 10.6901C8.97215 10.7649 8.85108 10.8098 8.72478 10.8195C8.59848 10.8292 8.47196 10.8035 8.35949 10.7452L5.98574 9.51449L3.61199 10.7452C3.49952 10.8035 3.37301 10.8292 3.24671 10.8195C3.12041 10.8098 2.99933 10.7649 2.89713 10.6901C2.79493 10.6153 2.71565 10.5134 2.66823 10.3959C2.62081 10.2784 2.60714 10.1501 2.62874 10.0252L3.07874 7.43399L1.17074 5.60024C1.07902 5.51189 1.01394 5.39957 0.982905 5.27606C0.951874 5.15254 0.956138 5.0228 0.995213 4.90159C1.03429 4.78038 1.1066 4.67257 1.20393 4.59043C1.30126 4.5083 1.41969 4.45513 1.54574 4.43699L4.19324 4.05524L5.37749 1.68824ZM5.98574 2.49899L4.94999 4.56749C4.90083 4.66549 4.82872 4.75015 4.73979 4.81427C4.65086 4.87839 4.54775 4.92006 4.43924 4.93574L2.13449 5.26799L3.79499 6.86249C3.87524 6.93964 3.93532 7.03531 3.96997 7.1411C4.00463 7.24689 4.01279 7.35956 3.99374 7.46924L3.60074 9.73124L5.67224 8.65574C5.76897 8.60551 5.87637 8.5793 5.98537 8.5793C6.09436 8.5793 6.20176 8.60551 6.29849 8.65574L8.37074 9.73124L7.97774 7.47149C7.9587 7.36181 7.96686 7.24914 8.00151 7.14335C8.03616 7.03756 8.09625 6.9419 8.17649 6.86474L9.83699 5.27024L7.53224 4.93574C7.42373 4.92006 7.32062 4.87839 7.23169 4.81427C7.14276 4.75015 7.07065 4.66549 7.02149 4.56749L5.98574 2.49899Z" fill="#FFA333"/>
</svg>
