<svg width="24" height="24" viewBox="0 0 24 24" fill="none" xmlns="http://www.w3.org/2000/svg">
<g id="app-download">
<path id="Vector 1602" d="M8 16.7014V9.6947C8 7.193 8 5.94215 8.80087 5.52024C9.60174 5.09834 10.6334 5.80573 12.6966 7.22052L18.1463 10.9574C19.8814 12.1473 20.749 12.7422 20.7241 13.5613C20.6993 14.3804 19.7973 14.9216 17.9932 16.0041L12.5435 19.2739C10.5291 20.4825 9.5219 21.0869 8.76095 20.656C8 20.2252 8 19.0506 8 16.7014Z" fill="#E3FBFF"/>
<g id="IAPS_favicon radius 3px">
<rect id="Rectangle 5699" x="2" y="2" width="20" height="20" rx="4" fill="#00A5EC"/>
<g id="Group 19373">
<g id="IS">
<path d="M6.125 6.375H8.36601V17.625H6.125V6.375Z" fill="white"/>
<path d="M14.2796 6.3825C15.3239 6.3825 16.1333 6.50741 16.7079 6.75725C17.2826 7.00708 17.8197 7.38183 18.3194 7.8815L16.8204 9.3805C16.3207 8.7809 15.6212 8.4811 14.7218 8.4811C13.8224 8.4811 13.2478 8.69345 12.9979 9.11817C12.7481 9.54289 12.7481 9.90515 12.9979 10.2049C13.2478 10.5047 13.8224 10.7296 14.7218 10.8795C15.6711 10.9794 16.5331 11.2917 17.3075 11.8164C18.082 12.341 18.4693 13.178 18.4693 14.3272C18.4693 15.2266 18.0545 16.0011 17.2251 16.6507C16.4007 17.3002 15.4388 17.625 14.3395 17.625C13.2952 17.625 12.4233 17.4751 11.7238 17.1753C11.0242 16.8755 10.4246 16.4758 9.92497 15.9761L11.424 14.4771C11.9236 15.0767 12.7731 15.4265 13.9723 15.5264C14.9716 15.5264 15.5937 15.314 15.8385 14.8893C16.0884 14.4646 16.0884 14.0399 15.8385 13.6152C15.5937 13.1905 14.9716 12.9281 13.9723 12.8282C13.0729 12.7283 12.2484 12.4534 11.4989 12.0037C10.7494 11.554 10.3747 10.7796 10.3747 9.6803C10.3747 8.68596 10.7994 7.88899 11.6488 7.28939C12.5032 6.68479 13.3802 6.3825 14.2796 6.3825Z" fill="white"/>
</g>
</g>
</g>
<rect id="Rectangle 62091" x="18" y="1" width="6" height="6" rx="3" fill="#F56753"/>
</g>
</svg>
