<svg class="svg-icon" style="width: 1em;height: 1em;vertical-align: middle;fill: currentColor;overflow: hidden;" viewBox="0 0 1024 1024" version="1.1" xmlns="http://www.w3.org/2000/svg"><path d="M154.154667 759.04l4.010666-3.541333L426.666667 487.04l140.501333 140.458667a42.666667 42.666667 0 0 0 56.32 3.541333l4.010667-3.541333L810.666667 444.373333l55.168 55.125334c25.685333 25.728 68.864 9.386667 72.576-25.301334L938.666667 469.333333l-0.085334-173.226666-0.384-3.712-1.066666-5.077334-1.024-3.242666-1.450667-3.456-2.218667-4.181334-2.858666-4.096-3.413334-3.84a43.093333 43.093333 0 0 0-4.778666-4.138666l-4.693334-3.029334-4.864-2.304-4.48-1.493333-5.034666-1.066667-2.517334-0.298666L896 256h-170.666667c-36.352 0-55.338667 42.069333-33.408 69.248l3.242667 3.584L750.293333 384 597.333333 536.96l-140.501333-140.458667a42.666667 42.666667 0 0 0-56.32-3.541333l-4.010667 3.541333-298.666666 298.666667a42.666667 42.666667 0 0 0 56.32 63.872z"  /></svg>