<svg width="32" height="32" viewBox="0 0 32 32" fill="none" xmlns="http://www.w3.org/2000/svg">
<path d="M15.3207 3.14787L16.5186 6.47442C17.8492 10.1664 20.7566 13.0738 24.4486 14.4044L27.7751 15.6023C28.075 15.7112 28.075 16.1363 27.7751 16.2437L24.4486 17.4416C20.7566 18.7722 17.8492 21.6796 16.5186 25.3716L15.3207 28.6981C15.2118 28.998 14.7867 28.998 14.6793 28.6981L13.4814 25.3716C12.1508 21.6796 9.24344 18.7722 5.55142 17.4416L2.22488 16.2437C1.92504 16.1348 1.92504 15.7097 2.22488 15.6023L5.55142 14.4044C9.24344 13.0738 12.1508 10.1664 13.4814 6.47442L14.6793 3.14787C14.7867 2.84654 15.2118 2.84654 15.3207 3.14787Z" fill="#006BC2"/>
<path d="M26.1969 2.07169L26.5745 3.11939C26.994 4.28217 27.9099 5.1981 29.0727 5.61755L30.1204 5.99525C30.2151 6.02958 30.2151 6.16321 30.1204 6.19755L29.0727 6.57524C27.9099 6.9947 26.994 7.91063 26.5745 9.07341L26.1969 10.1211C26.1625 10.2158 26.0289 10.2158 25.9946 10.1211L25.6169 9.07341C25.1974 7.91063 24.2815 6.9947 23.1187 6.57524L22.071 6.19755C21.9763 6.16321 21.9763 6.02958 22.071 5.99525L23.1187 5.61755C24.2815 5.1981 25.1974 4.28217 25.6169 3.11939L25.9946 2.07169C26.0289 1.9761 26.1634 1.9761 26.1969 2.07169Z" fill="#006BC2"/>
<path d="M26.1969 22.071L26.5745 23.1187C26.994 24.2815 27.9099 25.1974 29.0727 25.6169L30.1204 25.9946C30.2151 26.0289 30.2151 26.1625 30.1204 26.1969L29.0727 26.5745C27.9099 26.994 26.994 27.9099 26.5745 29.0727L26.1969 30.1204C26.1625 30.2151 26.0289 30.2151 25.9946 30.1204L25.6169 29.0727C25.1974 27.9099 24.2815 26.994 23.1187 26.5745L22.071 26.1969C21.9763 26.1625 21.9763 26.0289 22.071 25.9946L23.1187 25.6169C24.2815 25.1974 25.1974 24.2815 25.6169 23.1187L25.9946 22.071C26.0289 21.9763 26.1634 21.9763 26.1969 22.071Z" fill="#006BC2"/>
</svg>
