<svg width="32" height="32" viewBox="0 0 32 32" fill="none" xmlns="http://www.w3.org/2000/svg">
<path d="M4 23.0206V18C11.7893 20.5964 20.2107 20.5964 28 18V23.0206C28 24.013 27.3908 24.9036 26.4659 25.2633C19.7342 27.8812 12.2658 27.8812 5.53415 25.2633C4.60923 24.9036 4 24.013 4 23.0206Z" fill="#BBBBBB"/>
<path d="M4 16.6673V9.33398C11.7893 11.9304 20.2107 11.9304 28 9.33398V16.6673C20.2107 19.2638 11.7893 19.2638 4 16.6673Z" fill="#BBBBBB"/>
<path d="M28 7.33268C28 8.43725 22.6274 9.99935 16 9.99935C9.37258 9.99935 4 8.43725 4 7.33268C4 6.22811 9.37258 4.66602 16 4.66602C22.6274 4.66602 28 6.22811 28 7.33268Z" fill="#BBBBBB"/>
</svg>
