<svg width="20" height="20" viewBox="0 0 20 20" fill="none" xmlns="http://www.w3.org/2000/svg">
<g clip-path="url(#clip0_1258_2747)">
<path d="M9.99878 1.81738C10.2042 1.81738 10.406 1.87481 10.5808 1.98242C10.7554 2.09002 10.8969 2.24373 10.989 2.42676L12.9197 6.27539L17.2322 6.89551C17.4374 6.92502 17.6303 7.01204 17.7888 7.14551C17.9472 7.27899 18.065 7.45443 18.1287 7.65137C18.1922 7.8483 18.1987 8.05911 18.1482 8.25977C18.0976 8.46047 17.9919 8.64354 17.8425 8.78711L14.7341 11.7656L15.4666 15.9775C15.5017 16.1804 15.4793 16.3892 15.4021 16.5801C15.3249 16.7709 15.1964 16.937 15.03 17.0586C14.8637 17.1802 14.6663 17.2527 14.4607 17.2686C14.2552 17.2844 14.049 17.243 13.866 17.1484L9.99976 15.1475L6.13354 17.1484C5.95046 17.2431 5.74441 17.2843 5.53882 17.2686C5.33322 17.2527 5.13589 17.1801 4.96948 17.0586C4.80303 16.9369 4.67366 16.771 4.59644 16.5801C4.51928 16.3892 4.49681 16.1803 4.53198 15.9775L5.26538 11.7656L2.15698 8.78516C2.00784 8.64166 1.90184 8.4593 1.85132 8.25879C1.80078 8.05803 1.80819 7.84643 1.87183 7.64941C1.93549 7.45263 2.05333 7.27792 2.21167 7.14453C2.37018 7.01103 2.56301 6.92402 2.76831 6.89453L7.07983 6.27441L9.00854 2.42676C9.10065 2.24376 9.24216 2.09002 9.41675 1.98242C9.59156 1.87482 9.79339 1.81739 9.99878 1.81738Z" fill="#5B81A5"/>
<path d="M5.62013 18.181C5.45733 18.181 5.29652 18.1435 5.1491 18.0712C5.00168 17.9989 4.87126 17.8936 4.76708 17.7627C4.66245 17.6349 4.5863 17.4844 4.54414 17.3221C4.50198 17.1597 4.49488 16.9896 4.52335 16.824L5.25453 12.4174L2.15906 9.14862C2.00919 8.99864 1.9027 8.80753 1.85179 8.59716C1.80088 8.38679 1.8076 8.16567 1.87119 7.95911C1.93477 7.75255 2.05265 7.56891 2.21132 7.42921C2.36999 7.2895 2.56304 7.19939 2.76838 7.16917L7.08601 6.4089L8.99821 2.45511C9.08952 2.26249 9.23069 2.10057 9.40565 1.98783C9.5806 1.87508 9.78229 1.81603 9.98775 1.81741H9.99993V15.7789L9.98775 15.7712L6.12952 18.0484C5.97248 18.1351 5.79768 18.1806 5.62013 18.181Z" fill="#FFD907"/>
</g>
<defs>
<clipPath id="clip0_1258_2747">
<rect width="20" height="20" fill="white"/>
</clipPath>
</defs>
</svg>
