<svg xmlns="http://www.w3.org/2000/svg" width="20" height="20" viewBox="0 0 20 20" fill="none">
  <path d="M9.97607 2C10.186 2.00008 10.3921 2.05779 10.5708 2.16797C10.7497 2.27831 10.8944 2.43717 10.9888 2.625L12.9653 6.57031L17.3774 7.20703C17.5875 7.23726 17.7846 7.32609 17.9468 7.46289C18.109 7.59978 18.2303 7.77943 18.2954 7.98145C18.3605 8.18338 18.3676 8.3997 18.3159 8.60547C18.2642 8.81129 18.1553 8.99827 18.0024 9.14551L14.8208 12.2012L15.5708 16.5195C15.6068 16.7276 15.5844 16.9419 15.5054 17.1377C15.4263 17.3333 15.2938 17.5033 15.1235 17.6279C14.9533 17.7524 14.7518 17.8275 14.5415 17.8438C14.331 17.86 14.1196 17.8169 13.9321 17.7197L9.97607 15.668L6.02002 17.7197C5.83272 17.8168 5.62194 17.8599 5.41162 17.8438C5.20119 17.8275 4.99892 17.7526 4.82861 17.6279C4.65834 17.5032 4.52582 17.3334 4.44678 17.1377C4.36775 16.9419 4.34534 16.7276 4.38135 16.5195L5.13135 12.2012L1.95166 9.14453C1.79885 8.99734 1.68993 8.81025 1.63818 8.60449C1.58649 8.39875 1.59367 8.18239 1.65869 7.98047C1.72377 7.77859 1.84431 7.59877 2.00635 7.46191C2.16856 7.32502 2.36657 7.23629 2.57666 7.20605L6.98877 6.56934L8.9624 2.625C9.05675 2.43717 9.20147 2.27831 9.38037 2.16797C9.55925 2.05768 9.76593 2 9.97607 2Z" fill="#FFD907"/>
</svg>
