<svg width="16" height="16" viewBox="0 0 16 16" fill="none" xmlns="http://www.w3.org/2000/svg">
<path d="M1.33325 4.73978H1.73258C1.95645 4.73978 2.13794 4.92126 2.13794 5.14513V5.14513M1.4453 10.8911H1.5299C1.86571 10.8911 2.13794 10.6188 2.13794 10.283V10.283M2.13794 10.283H2.92959C3.39098 10.283 3.82991 10.4822 4.13373 10.8294L6.03801 13.0058C6.09268 13.0683 6.15768 13.1209 6.23018 13.1614V13.1614C6.42464 13.2699 6.65821 13.283 6.86357 13.1968L6.95194 13.1598C7.22325 13.0459 7.42388 12.8094 7.49189 12.5231L7.51609 12.4213M2.13794 10.283V5.14513M7.51609 12.4213L7.06791 11.7828M7.51609 12.4213L8.03053 12.5878C8.24048 12.6557 8.46967 12.6279 8.65726 12.5117V12.5117C8.81445 12.4143 8.93019 12.2624 8.98232 12.085L9.0949 11.7018M9.0949 11.7018L8.50412 10.8708M9.0949 11.7018L9.56623 11.8161C9.7997 11.8728 10.046 11.8367 10.2535 11.7155V11.7155C10.458 11.596 10.609 11.4029 10.6758 11.1757L10.7654 10.8708M10.7654 10.8708L10.0931 10.0398M10.7654 10.8708L11.0621 10.9753C11.2946 11.0571 11.5509 11.036 11.7669 10.9174L11.8233 10.8864C12.0055 10.7863 12.1359 10.6126 12.1812 10.4097V10.4097M7.42442 4.30402L5.28372 6.71403C5.16668 6.84579 5.10203 7.01591 5.10203 7.19215V7.19215C5.10203 7.42716 5.21673 7.64737 5.4093 7.78208L5.4759 7.82867C5.65285 7.95245 5.87408 7.99519 6.0844 7.94621V7.94621C6.18227 7.92342 6.27466 7.88147 6.35623 7.82276L7.72888 6.83485C8.00114 6.6389 8.32809 6.53348 8.66352 6.53348H8.93238C9.21755 6.53348 9.49621 6.61873 9.73256 6.7783V6.7783C9.87003 6.8711 9.9903 6.98712 10.088 7.12115L12.0599 9.82617C12.1823 9.99418 12.2266 10.2068 12.1812 10.4097V10.4097M7.42442 4.30402V4.30402C7.69583 4.10644 8.02289 4 8.3586 4H11.9062H12.1023C12.5033 4 12.8863 4.16708 13.1591 4.46109L13.2821 4.59364C13.4764 4.80313 13.7493 4.92219 14.0351 4.92219V4.92219M7.42442 4.30402H4.54703C4.2506 4.30402 3.95999 4.38637 3.70763 4.54189L3.11472 4.90726C2.86235 5.06278 2.57175 5.14513 2.27531 5.14513H2.13794M14.0351 4.92219V10.4097M14.0351 4.92219V4.92219C14.0351 4.79346 14.1394 4.68911 14.2681 4.68911H14.6666M14.6666 10.8708H14.4962C14.2415 10.8708 14.0351 10.6644 14.0351 10.4097V10.4097M12.1812 10.4097H14.0351" stroke="#484848" stroke-linecap="round" stroke-linejoin="round"/>
</svg>
