<svg width="16" height="16" viewBox="0 0 16 16" fill="none" xmlns="http://www.w3.org/2000/svg">
<g clip-path="url(#clip0_20189_9194)">
<circle cx="7.39219" cy="7.59336" r="1.84043" stroke="#666666"/>
<path d="M10.6438 11.4816C10.816 11.8908 10.905 12.3301 10.9058 12.774C10.9058 12.777 10.9033 12.7794 10.9003 12.7794V12.7794C10.8973 12.7794 10.8948 12.777 10.8948 12.774C10.8941 12.3315 10.8053 11.8937 10.6337 11.4858C10.4613 11.0763 10.2089 10.7054 9.89123 10.3948C9.57354 10.0842 9.197 9.84025 8.7837 9.67721C8.37041 9.51418 7.92871 9.43536 7.48454 9.4454C7.04036 9.45545 6.60267 9.55414 6.19717 9.73569C5.79167 9.91724 5.42653 10.178 5.12321 10.5026C4.81988 10.8272 4.58447 11.2092 4.43082 11.6261C4.2778 12.0412 4.20892 12.4827 4.22819 12.9247C4.22832 12.9277 4.22598 12.9303 4.22296 12.9304V12.9304C4.21994 12.9305 4.21738 12.9282 4.21724 12.9252C4.19791 12.4817 4.26701 12.0388 4.42054 11.6223C4.5747 11.2041 4.81087 10.8208 5.1152 10.4951C5.41952 10.1694 5.78586 9.90784 6.19269 9.72569C6.59953 9.54354 7.03865 9.44452 7.48429 9.43445C7.92992 9.42437 8.37308 9.50344 8.78773 9.66702C9.20238 9.83059 9.58016 10.0754 9.89889 10.387C10.2176 10.6986 10.4709 11.0707 10.6438 11.4816Z" stroke="#666666"/>
<path d="M12.1306 3L12.6859 4.10904L13.9278 4.28797L13.0292 5.15075L13.2413 6.36963L12.1306 5.79385L11.02 6.36963L11.2321 5.15075L10.3335 4.28797L11.5753 4.10904L12.1306 3Z" stroke="#666666" stroke-width="0.842485" stroke-linecap="round" stroke-linejoin="round"/>
<path d="M5.6023 3.37503C6.72319 2.96239 7.94657 2.91902 9.09374 3.2511C9.0986 3.2525 9.1014 3.2576 9.09998 3.26246V3.26246C9.09857 3.26732 9.09347 3.27011 9.08861 3.26871C7.94521 2.93772 6.72584 2.98096 5.60864 3.39224C4.48857 3.80458 3.53018 4.56513 2.87417 5.56225C2.21817 6.55936 1.8991 7.74052 1.96381 8.93233C2.02851 10.1241 2.47358 11.2638 3.23369 12.184C3.99379 13.1043 5.02888 13.7566 6.18701 14.0452C7.34515 14.3339 8.56531 14.2437 9.66839 13.7878C10.7715 13.3319 11.6993 12.5344 12.3158 11.5124C12.9307 10.493 13.2035 9.30375 13.0944 8.11842C13.094 8.11337 13.0977 8.1089 13.1027 8.10842V8.10842C13.1077 8.10795 13.1122 8.11166 13.1127 8.11671C13.2221 9.30595 12.9484 10.4991 12.3315 11.5219C11.713 12.5473 10.7821 13.3474 9.67539 13.8047C8.56869 14.2621 7.34452 14.3526 6.18258 14.063C5.02064 13.7734 3.98215 13.119 3.21955 12.1957C2.45694 11.2725 2.01041 10.129 1.94549 8.93332C1.88057 7.7376 2.20069 6.55256 2.85885 5.55217C3.51701 4.55177 4.47855 3.78872 5.6023 3.37503Z" stroke="#666666"/>
</g>
<defs>
<clipPath id="clip0_20189_9194">
<rect width="16" height="16" fill="white"/>
</clipPath>
</defs>
</svg>
